# xmcd
#
# Track frame offsets:
# 150
# 26007
# 55975
# 94054
# 103285
# 118168
# 141718
# 174680
# 208943
# 238391
# 276727
#
# Disc length: 3996 seconds
#
#
# Revision: 0
# Processed by: cddbd v1.5.2PL0 Copyright (c) Steve Scherf et al.
# Submitted via: FreeRIP 2.951 
#
DISCID=bd0f9a0b
DTITLE=Dylan and Grateful Dead - Dylan and Dead Complete Interaction Disc 1
DYEAR=2003
DGENRE=Blues
TTITLE0=Alabama Getaway
TTITLE1=It's All Over Now, Baby Blue
TTITLE2=West LA Fadeaway
TTITLE3=Friend Of the Devil
TTITLE4=Black Bird
TTITLE5=Friend Of the Devil
TTITLE6=Gotta Serve Somebody
TTITLE7=Like a Rolling Stone
TTITLE8=Big River
TTITLE9=West LA Fadeaway
TTITLE10=Alabama Getaway
EXTD=
EXTT0=
EXTT1=
EXTT2=
EXTT3=
EXTT4=
EXTT5=
EXTT6=
EXTT7=
EXTT8=
EXTT9=
EXTT10=
PLAYORDER=
